<?xml version="1.0" standalone="no"?>
<!DOCTYPE svg PUBLIC "-//W3C//DTD SVG 20010904//EN"
 "http://www.w3.org/TR/2001/REC-SVG-20010904/DTD/svg10.dtd">
<svg version="1.0" xmlns="http://www.w3.org/2000/svg"
 width="850.000000pt" height="850.000000pt" viewBox="0 0 850.000000 850.000000"
 preserveAspectRatio="xMidYMid meet">

<g transform="translate(0.000000,850.000000) scale(0.100000,-0.100000)"
fill="#000000" stroke="none">
<path d="M0 4250 l0 -4250 4250 0 4250 0 0 4250 0 4250 -4250 0 -4250 0 0
-4250z m4002 3885 c98 -61 298 -191 348 -225 25 -17 142 -95 260 -174 225
-149 516 -348 586 -400 23 -17 50 -37 60 -44 11 -7 66 -46 124 -87 58 -40 125
-88 150 -105 381 -264 625 -450 870 -665 139 -121 405 -384 486 -480 32 -38
61 -72 64 -75 9 -8 53 -64 73 -91 9 -13 37 -52 62 -87 54 -75 65 -120 63 -264
-1 -79 -4 -93 -9 -63 -4 22 -8 63 -9 90 0 38 -3 46 -11 35 -8 -11 -9 -7 -5 18
4 20 2 31 -4 27 -6 -3 -10 -13 -10 -22 0 -19 -10 -12 -14 9 -3 22 -65 138
-108 202 -163 243 -503 586 -914 920 -88 72 -173 141 -190 153 -16 12 -49 37
-73 55 -24 18 -52 39 -62 46 -13 10 -23 11 -38 2 -12 -6 -21 -15 -21 -19 0
-13 53 -66 73 -74 10 -4 16 -11 12 -16 -6 -11 52 -58 66 -53 5 1 9 -7 9 -18 0
-27 48 -69 78 -70 19 0 21 -3 13 -18 -7 -13 -7 -22 1 -30 8 -8 8 -15 -2 -27
-8 -10 -9 -15 -1 -15 6 0 11 -7 11 -15 0 -21 -18 -19 -22 2 -2 12 -14 18 -41
18 -36 1 -37 1 -37 -37 0 -37 -1 -38 -35 -38 -33 0 -35 -2 -35 -35 0 -29 -5
-37 -25 -45 -20 -8 -25 -16 -25 -45 l0 -35 -59 0 c-43 0 -60 -4 -65 -15 -3 -8
-2 -15 3 -15 10 0 2 -48 -10 -56 -5 -3 -9 -10 -9 -16 0 -6 2 -9 5 -6 6 6 175
-158 175 -169 0 -4 -3 -4 -6 0 -3 3 -56 52 -116 109 -61 57 -132 123 -158 148
-26 25 -89 83 -141 130 -137 124 -171 160 -325 340 -123 146 -661 814 -844
1049 -36 46 -70 89 -75 95 -9 10 -70 87 -87 111 -13 17 -100 129 -117 149 -16
20 -16 20 16 0 18 -10 61 -37 95 -59z m198 -635 c0 -33 3 -40 20 -40 19 0 20
-7 20 -120 0 -113 1 -120 20 -120 17 0 20 -7 20 -40 0 -28 -4 -40 -14 -40 -8
0 -17 -4 -20 -9 -3 -4 7 -6 22 -3 52 9 16 -6 -77 -33 -148 -42 -552 -141 -795
-195 -629 -139 -1000 -201 -1221 -203 -109 -2 -128 1 -210 28 -78 26 -105 30
-195 30 -64 0 -114 -5 -127 -13 -23 -13 -57 -6 -47 9 3 5 -6 4 -20 -3 -15 -6
-23 -14 -19 -17 4 -3 12 -10 16 -16 5 -6 7 -3 3 8 -6 19 1 21 23 8 11 -7 10
-11 -5 -19 -14 -7 -25 -6 -38 4 -18 13 -18 15 -2 32 34 39 121 74 486 195 931
311 1600 503 1975 568 66 11 122 22 124 25 2 2 17 4 33 4 26 0 28 -3 28 -40z
m-2646 -805 c3 -9 0 -12 -10 -8 -7 3 -14 9 -14 15 0 5 -5 6 -12 2 -7 -4 -8 -3
-4 4 8 14 33 5 40 -13z m-44 -15 c0 -5 -5 -10 -11 -10 -5 0 -7 5 -4 10 3 6 8
10 11 10 2 0 4 -4 4 -10z m630 -635 c-17 -246 -55 -519 -89 -630 -5 -16 -10
-25 -11 -20 -1 6 -6 -3 -10 -20 -6 -24 -8 -18 -10 35 -3 46 -5 54 -7 28 -4
-36 -24 -51 -37 -29 -3 4 -18 7 -33 7 -15 -1 -43 4 -62 11 -18 7 -51 13 -72
13 -38 0 -60 14 -37 24 7 3 1 3 -13 0 -16 -3 -30 0 -38 10 -8 9 -19 16 -27 16
-7 0 -29 8 -49 17 -30 14 -38 15 -44 4 -14 -22 -32 19 -20 44 9 18 9 19 -4 3
-37 -47 -21 -4 59 149 119 230 301 540 453 773 l56 85 3 -180 c2 -99 -2 -252
-8 -340z m1805 340 c361 -85 636 -394 826 -928 60 -166 135 -255 300 -351 208
-122 389 -266 600 -476 257 -256 473 -531 669 -850 153 -249 176 -315 125
-365 -49 -50 -137 -29 -450 108 -155 68 -206 95 -190 101 18 7 20 42 3 49 -10
4 -9 8 2 16 12 9 8 10 -15 7 -16 -2 -24 -1 -17 1 15 6 15 5 -5 48 -15 31 -15
37 -3 45 8 5 11 12 7 16 -3 4 -13 1 -21 -5 -12 -10 -14 -6 -12 25 2 20 9 40
16 44 8 5 7 9 -5 13 -9 4 -13 3 -10 -3 7 -11 6 -11 -42 -15 -32 -3 -44 8 -23
18 6 3 5 4 -2 3 -7 -1 -14 -12 -16 -24 -3 -20 -9 -22 -79 -22 -55 0 -81 -4
-93 -15 -22 -20 -67 -29 -75 -15 -3 5 -12 10 -18 10 -7 0 -6 -4 3 -10 75 -49
-213 72 -358 150 -35 18 -82 54 -105 80 -42 46 -112 177 -137 255 -28 86 -93
162 -200 234 -234 156 -838 419 -1090 475 -338 74 -498 99 -755 117 -270 19
-619 0 -890 -47 -178 -31 -408 -94 -455 -124 -74 -47 -513 -250 -541 -250 -5
0 -9 8 -9 18 0 47 260 215 450 290 134 53 459 137 834 217 94 19 171 37 173
39 7 6 -140 138 -186 167 l-46 29 35 -6 c107 -19 236 -70 332 -131 42 -26 43
-26 133 -15 49 7 326 37 615 67 289 31 548 62 576 71 63 18 93 40 133 101 112
169 88 470 -60 765 -37 74 -45 98 -34 98 3 0 52 -11 110 -25z m1695 -145 c0
-5 -7 -10 -15 -10 -8 0 -15 5 -15 10 0 6 7 10 15 10 8 0 15 -4 15 -10z m60
-26 c0 -8 -4 -14 -10 -14 -5 0 -10 9 -10 21 0 11 5 17 10 14 6 -3 10 -13 10
-21z m-34 -21 c-11 -11 -19 6 -11 24 8 17 8 17 12 0 3 -10 2 -21 -1 -24z
m-4106 -683 c0 -5 -4 -10 -10 -10 -5 0 -10 5 -10 10 0 6 5 10 10 10 6 0 10 -4
10 -10z m1218 -519 c24 -15 -14 -21 -81 -13 l-62 7 45 6 c69 9 84 9 98 0z m99
3 c-3 -3 -12 -4 -19 -1 -8 3 -5 6 6 6 11 1 17 -2 13 -5z m43 -26 c-17 -5 -10
-6 23 -3 30 3 47 1 47 -6 0 -7 14 -9 38 -5 20 3 30 3 22 -1 -8 -3 -18 -11 -22
-16 -4 -7 -35 -4 -91 7 -46 9 -101 17 -121 18 -22 1 -32 4 -24 9 6 4 24 5 39
2 15 -3 35 -1 44 4 9 6 29 7 43 5 l27 -6 -25 -8z m185 -38 c-3 -5 -21 -9 -38
-9 l-32 1 30 8 c43 11 47 11 40 0z m65 -15 c0 -6 -13 -12 -30 -13 -26 -1 -29
2 -20 18 11 20 50 17 50 -5z m95 -35 c13 -6 5 -7 -25 -3 -25 3 -47 7 -49 9 -9
8 55 2 74 -6z m225 -594 c58 -8 148 -28 201 -45 99 -30 245 -61 303 -63 l34
-1 16 -86 c19 -97 53 -210 68 -228 17 -21 2 -15 -85 32 -172 92 -410 182 -532
200 -36 5 -34 3 21 -19 288 -114 597 -280 772 -413 151 -116 292 -189 497
-258 105 -36 172 -64 150 -64 -5 0 -21 6 -35 14 -39 22 -50 18 -50 -17 0 -38
-8 -52 -32 -61 -20 -7 -25 -53 -7 -59 7 -2 5 -13 -4 -31 -8 -14 -17 -24 -20
-21 -3 4 -9 -7 -13 -22 -4 -16 -18 -51 -30 -78 -13 -28 -24 -60 -24 -73 0 -13
-7 -26 -15 -29 -16 -6 -30 -41 -26 -62 4 -21 -29 -64 -44 -58 -7 2 -16 -2 -19
-10 -3 -8 1 -14 10 -14 13 0 12 -4 -4 -27 -10 -16 -22 -43 -25 -61 -9 -47 -50
-79 -99 -76 -22 1 -38 1 -36 -1 2 -1 25 -14 53 -29 27 -14 43 -26 34 -26 -33
0 -259 132 -387 226 -42 32 -185 166 -317 299 -336 339 -548 527 -661 587
-112 58 -270 114 -382 133 -186 32 -641 105 -722 115 -96 13 -166 28 -195 43
-15 8 1 14 85 32 58 12 157 41 220 64 228 84 573 174 722 189 146 15 468 14
578 -2z m-2246 -102 c3 -8 2 -12 -4 -9 -6 3 -10 10 -10 16 0 14 7 11 14 -7z
m35 -76 c1 15 81 17 81 2 0 -5 18 -10 40 -10 40 0 40 0 40 -39 0 -40 0 -40 43
-43 38 -3 42 -5 39 -27 -2 -22 -1 -23 20 -9 13 7 36 13 51 13 17 -1 26 3 23
11 -3 7 5 11 20 10 13 0 24 -2 24 -2 0 -1 -24 -19 -52 -41 -48 -36 -58 -40
-106 -37 -28 1 -54 -2 -58 -7 -3 -5 2 -6 11 -2 10 3 20 0 25 -7 6 -9 12 -9 29
-1 34 18 24 5 -13 -18 -39 -25 -70 -29 -40 -6 18 14 17 15 -11 9 -45 -10 -63
-30 -47 -54 11 -19 10 -20 -13 -14 -34 8 -32 -12 3 -24 l27 -10 -28 -1 c-16
-1 -26 -5 -23 -9 2 -4 1 -14 -5 -22 -6 -10 -9 2 -10 40 l-2 55 -7 -45 c-4 -25
-3 -58 3 -73 5 -15 7 -31 3 -34 -3 -4 -6 1 -6 11 0 10 -5 14 -11 10 -8 -4 -9
1 -4 16 5 15 4 20 -3 16 -7 -4 -15 9 -21 31 -22 83 -31 135 -25 146 3 7 -1 4
-9 -5 -12 -16 -15 -9 -26 67 -6 47 -14 93 -17 103 -3 10 -1 9 5 -3 5 -11 16
-49 23 -85 l14 -65 -2 110 c-2 75 0 97 5 70 5 -22 9 -34 10 -27z m431 -42 c0
-2 -8 -10 -17 -17 -16 -13 -17 -12 -4 4 13 16 21 21 21 13z m88 -113 c13 -13
13 -15 2 -11 -8 3 -25 1 -37 -3 -13 -5 -23 -6 -23 -3 0 2 10 9 23 15 22 9 21
9 -3 5 -14 -2 -34 -7 -45 -11 -20 -7 -20 -6 -1 9 26 21 63 20 84 -1z m-80 -41
c2 -7 -8 -16 -23 -22 -35 -13 -42 -13 -27 2 15 15 16 31 0 22 -6 -4 -8 -3 -5
3 8 13 50 9 55 -5z m165 1 c-7 -2 -21 -2 -30 0 -10 3 -4 5 12 5 17 0 24 -2 18
-5z m14 -29 c-3 -3 -12 -4 -19 -1 -8 3 -5 6 6 6 11 1 17 -2 13 -5z m-258 -13
c10 -7 7 -9 -12 -8 -14 1 -23 5 -20 10 6 9 15 9 32 -2z m159 -16 c38 3 42 1
23 -6 -13 -5 -33 -7 -44 -3 -12 4 -17 2 -13 -5 4 -5 -8 -17 -26 -26 -33 -16
-33 -16 -11 3 29 26 18 35 -18 16 -16 -8 -29 -10 -29 -5 0 5 14 15 30 23 17 7
31 17 31 23 1 5 3 3 6 -6 3 -13 15 -16 51 -14z m-239 -19 c-12 -10 -60 -16
-54 -6 3 5 18 10 32 10 15 0 24 -2 22 -4z m52 -57 c11 -11 18 -23 16 -26 -5
-5 -47 33 -47 42 0 10 10 5 31 -16z m-128 4 c-13 -2 -33 -2 -45 0 -13 2 -3 4
22 4 25 0 35 -2 23 -4z m-119 -99 c3 -8 2 -12 -4 -9 -6 3 -10 10 -10 16 0 14
7 11 14 -7z m186 2 c0 -3 -4 -8 -10 -11 -5 -3 -10 -1 -10 4 0 6 5 11 10 11 6
0 10 -2 10 -4z m4255 -18 c14 -6 25 -15 25 -20 0 -5 -13 -2 -30 7 -45 23 -41
34 5 13z m-4405 -12 c0 -3 -4 -8 -10 -11 -5 -3 -10 -1 -10 4 0 6 5 11 10 11 6
0 10 -2 10 -4z m4390 -16 c24 -15 7 -18 -20 -3 -14 7 -18 13 -10 13 8 0 22 -4
30 -10z m-4360 -20 c0 -5 -2 -10 -4 -10 -3 0 -8 5 -11 10 -3 6 -1 10 4 10 6 0
11 -4 11 -10z m918 -59 c160 -53 635 -249 957 -396 44 -20 97 -44 118 -53 94
-39 230 -111 212 -111 -12 -1 -27 5 -34 12 -11 9 -10 7 0 -10 8 -13 17 -23 21
-23 4 0 5 -7 2 -15 -4 -9 -14 -14 -23 -13 -12 2 -16 -6 -17 -32 -2 -40 -49
-150 -64 -150 -5 0 -10 -7 -10 -15 0 -9 -9 -33 -20 -55 -13 -25 -16 -40 -8
-42 7 -3 5 -14 -6 -35 -9 -18 -16 -52 -16 -78 0 -57 -20 -60 -21 -2 -1 31 -4
21 -12 -37 -5 -44 -15 -86 -21 -93 -6 -8 -17 -20 -23 -28 -16 -17 -17 -35 -2
-35 5 0 8 -4 5 -9 -3 -5 4 -12 17 -16 19 -6 19 -8 4 -12 -9 -2 -15 -9 -12 -14
7 -11 -3 -11 -30 1 -11 5 -14 9 -7 9 23 2 12 16 -15 18 -19 1 -22 -1 -12 -8
12 -7 11 -9 -1 -9 -9 0 -20 4 -25 9 -6 4 -33 16 -62 26 -29 10 -50 22 -47 27
3 4 -3 5 -12 1 -11 -4 -15 -3 -11 4 5 7 -1 9 -15 5 -16 -4 -19 -2 -13 8 5 8 4
11 -3 6 -13 -8 -222 99 -387 197 -265 158 -749 505 -750 537 -1 8 -6 14 -13
12 -7 -1 -25 9 -40 23 -15 14 -30 25 -34 25 -5 0 -8 5 -8 12 0 9 3 9 12 0 7
-7 19 -12 28 -12 12 1 12 3 -3 14 -14 11 -15 15 -5 20 7 3 3 3 -9 0 -19 -4
-23 -1 -23 18 0 18 2 20 9 9 8 -12 16 -10 45 13 20 15 36 31 36 36 0 5 25 28
55 52 40 31 60 55 72 88 9 25 25 53 36 62 10 9 17 25 15 35 -2 13 4 19 25 21
15 2 27 9 27 18 0 20 16 18 118 -15z m-893 -1838 c4 -10 54 -152 111 -317 57
-164 108 -304 112 -312 4 -8 52 118 118 314 l112 327 131 3 c120 2 131 1 131
-15 0 -10 14 -245 30 -523 16 -278 30 -513 30 -522 0 -16 -13 -18 -124 -18
l-123 0 -6 63 c-4 34 -10 126 -13 205 -4 79 -10 139 -14 135 -4 -4 -28 -71
-54 -148 -25 -77 -56 -166 -68 -198 l-21 -58 -125 3 -126 3 -71 208 c-40 114
-75 210 -78 214 -4 3 -7 -5 -7 -18 0 -13 -5 -111 -12 -216 l-11 -193 -129 0
-129 0 6 48 c2 26 9 126 15 222 6 96 19 315 30 487 11 171 20 314 20 317 0 3
58 6 129 6 113 0 130 -2 136 -17z m1200 2 c215 -56 383 -248 413 -471 7 -54 5
-84 -10 -152 -45 -201 -153 -330 -343 -408 -66 -26 -80 -28 -242 -32 l-173 -4
0 541 0 541 148 0 c100 0 167 -5 207 -15z m1065 -110 l0 -125 -100 0 -100 0 0
-415 0 -415 -130 0 -130 0 0 415 0 415 -100 0 -100 0 0 125 0 125 330 0 330 0
0 -125z m1064 92 c65 -24 161 -82 187 -113 10 -13 -3 -30 -76 -104 l-88 -89
-31 24 c-52 39 -107 57 -176 58 -114 0 -207 -58 -256 -161 -69 -147 -5 -317
145 -386 89 -40 229 -19 296 44 21 20 21 19 110 -71 l90 -90 -40 -35 c-217
-187 -574 -153 -759 72 -114 140 -151 304 -106 479 51 200 210 351 414 395 73
16 214 4 290 -23z m807 19 c295 -63 484 -363 411 -651 -40 -161 -141 -287
-284 -355 -98 -47 -185 -64 -285 -56 -284 23 -508 281 -490 566 20 329 327
564 648 496z m849 -1 c193 -51 356 -216 400 -404 17 -73 15 -200 -5 -269 -50
-174 -174 -302 -355 -368 -33 -12 -92 -18 -217 -22 l-173 -4 0 541 0 541 148
0 c96 0 166 -5 202 -15z m1151 -115 l0 -125 -220 -3 -221 -2 0 -75 0 -75 180
0 180 0 0 -125 0 -125 -180 0 -180 0 0 -85 0 -85 223 0 222 0 -3 -125 -3 -125
-345 0 -344 0 0 533 c0 294 3 536 6 539 3 3 158 5 345 4 l340 -1 0 -125z
m-6775 -48 c60 -50 58 -138 -5 -178 -14 -10 -92 -64 -174 -122 -147 -104 -147
-104 -125 -121 13 -10 87 -62 166 -116 79 -54 152 -110 163 -123 25 -33 25
-92 -1 -125 -27 -34 -79 -51 -114 -37 -40 15 -503 347 -510 366 -11 29 -6 89
9 111 13 19 258 199 444 326 60 42 112 48 147 19z m7244 -65 c63 -46 171 -123
240 -171 69 -48 130 -98 137 -109 13 -24 17 -85 7 -112 -8 -19 -469 -350 -510
-365 -59 -23 -134 31 -134 96 0 47 16 75 58 105 163 113 302 213 302 218 0 3
-77 60 -170 125 -181 128 -197 147 -187 213 9 51 48 83 101 83 36 0 56 -11
156 -83z"/>
<path d="M5505 7070 c3 -5 8 -10 11 -10 2 0 4 5 4 10 0 6 -5 10 -11 10 -5 0
-7 -4 -4 -10z"/>
<path d="M5560 7032 c0 -4 9 -18 20 -32 11 -14 20 -32 20 -40 0 -12 2 -13 9
-1 7 11 13 9 32 -9 l24 -23 -22 6 c-28 6 -30 -4 -3 -21 15 -9 25 -9 45 0 27
12 36 34 9 24 -8 -3 -13 -2 -10 3 3 4 -9 19 -27 32 -62 46 -97 68 -97 61z"/>
<path d="M5530 7010 c0 -5 5 -10 10 -10 6 0 10 5 10 10 0 6 -4 10 -10 10 -5 0
-10 -4 -10 -10z"/>
<path d="M5535 6300 c3 -5 11 -10 16 -10 6 0 7 5 4 10 -3 6 -11 10 -16 10 -6
0 -7 -4 -4 -10z"/>
<path d="M5570 6276 c0 -9 5 -16 10 -16 6 0 10 4 10 9 0 6 -4 13 -10 16 -5 3
-10 -1 -10 -9z"/>
<path d="M2042 5455 c0 -16 2 -22 5 -12 2 9 2 23 0 30 -3 6 -5 -1 -5 -18z"/>
<path d="M3370 5330 l-185 -5 190 -7 c336 -12 634 -61 885 -144 155 -52 232
-91 420 -217 441 -295 776 -585 903 -782 32 -50 79 -124 106 -165 26 -41 80
-105 119 -142 39 -37 67 -70 62 -73 -6 -3 -14 -4 -18 -1 -4 2 -14 1 -22 -4
-11 -7 -8 -9 10 -8 14 1 30 6 37 11 7 5 24 3 45 -7 85 -40 158 -57 158 -36 0
13 -752 765 -860 861 -447 394 -905 634 -1342 704 -116 18 -259 23 -508 15z"/>
<path d="M3048 5323 c7 -3 16 -2 19 1 4 3 -2 6 -13 5 -11 0 -14 -3 -6 -6z"/>
<path d="M5314 4176 c-45 -20 -64 -52 -64 -110 0 -43 4 -53 35 -82 32 -30 40
-33 86 -29 36 2 58 10 75 26 22 21 25 31 23 84 -3 66 -21 95 -72 114 -36 14
-45 13 -83 -3z m120 -37 c8 -9 5 -9 -11 0 -84 43 -176 -48 -132 -131 6 -11 8
-22 5 -25 -11 -12 -37 69 -31 97 8 35 49 78 78 82 28 5 77 -8 91 -23z"/>
<path d="M5790 3840 c0 -5 5 -10 11 -10 5 0 7 5 4 10 -3 6 -8 10 -11 10 -2 0
-4 -4 -4 -10z"/>
<path d="M4480 2730 c0 -5 7 -10 15 -10 8 0 15 5 15 10 0 6 -7 10 -15 10 -8 0
-15 -4 -15 -10z"/>
<path d="M1550 3965 c-7 -9 -10 -18 -6 -22 3 -4 12 0 19 9 6 9 19 18 27 21 10
4 8 6 -6 6 -12 1 -27 -6 -34 -14z"/>
<path d="M1301 3848 c0 -7 4 -22 9 -33 7 -17 9 -15 9 13 1 17 -3 32 -9 32 -5
0 -10 -6 -9 -12z"/>
<path d="M3558 2993 c7 -3 16 -2 19 1 4 3 -2 6 -13 5 -11 0 -14 -3 -6 -6z"/>
<path d="M1983 1713 c32 -2 81 -2 110 0 29 2 3 3 -58 3 -60 0 -84 -1 -52 -3z"/>
<path d="M1828 1132 c-63 -2 -108 -7 -108 -13 0 -5 -7 -25 -14 -44 -11 -25
-19 -33 -30 -29 -9 3 -16 12 -16 20 0 7 -5 25 -12 39 -11 25 -13 25 -120 25
-59 0 -108 -3 -108 -7 0 -18 74 -202 80 -198 3 2 6 -6 6 -18 -1 -27 36 -34
209 -36 79 -1 122 -6 128 -14 5 -7 5 -2 2 12 -5 15 -3 21 3 17 11 -7 11 -8 59
129 20 55 37 102 39 104 2 2 10 -2 19 -9 10 -8 15 -31 15 -70 0 -31 3 -84 6
-116 l6 -59 93 5 94 5 10 -30 c10 -28 10 -27 5 10 -4 22 -5 79 -5 127 1 48 -1
103 -5 123 l-6 35 -122 -2 c-66 -2 -169 -4 -228 -6z"/>
<path d="M1166 1038 c-3 -50 -5 -114 -5 -142 1 -44 2 -47 9 -21 6 24 8 26 9 8
0 -13 5 -23 11 -23 5 0 7 6 5 13 -4 9 14 11 77 6 46 -3 86 -4 89 -2 4 1 10 53
14 114 4 62 9 118 12 126 4 10 -17 13 -104 13 l-110 0 -7 -92z"/>
<path d="M2550 1200 l0 -290 28 6 c94 22 165 76 206 158 26 51 28 64 24 135
-4 61 -10 88 -31 123 -45 77 -116 131 -199 152 l-28 6 0 -290z"/>
<path d="M2320 1011 l0 -140 88 -3 c48 -2 89 0 90 5 7 13 24 7 19 -7 -7 -19
26 -27 61 -15 l27 9 -27 -4 c-52 -6 -47 10 7 20 42 8 52 7 44 -3 -8 -9 19 -13
125 -15 131 -3 136 -2 131 17 -3 11 -2 14 1 7 5 -10 11 -9 27 5 l21 18 -18
-30 -18 -30 29 30 c16 17 39 47 51 68 26 46 62 151 62 184 0 24 0 24 -105 22
l-104 -3 -7 -30 c-7 -32 -42 -96 -72 -132 -40 -47 -175 -110 -207 -97 -17 6
-16 -3 -15 141 l1 112 -83 1 c-46 0 -93 2 -105 5 -23 4 -23 4 -23 -135z m171
-114 c-10 -9 -11 -8 -5 6 3 10 9 15 12 12 3 -3 0 -11 -7 -18z"/>
<path d="M3287 1013 c3 -81 9 -156 13 -168 8 -19 9 -19 9 4 1 20 3 21 16 11
11 -9 15 -9 15 -1 0 7 5 9 11 6 17 -11 109 -11 109 0 0 6 4 3 10 -5 5 -8 11
-12 13 -10 3 3 7 74 10 158 l5 152 -108 0 -108 0 5 -147z"/>
<path d="M4092 1108 c9 -51 55 -163 77 -190 6 -7 20 -24 31 -38 17 -21 21 -23
30 -10 9 12 10 11 5 -6 -6 -21 -4 -22 135 -20 77 0 140 5 140 10 0 4 8 5 17 2
10 -4 92 -7 183 -7 140 0 167 -3 184 -17 11 -9 16 -12 13 -5 -4 6 -3 14 3 18
15 9 1 27 -17 21 -8 -3 -12 -2 -9 3 8 12 -54 82 -67 74 -5 -3 -7 -1 -3 5 10
16 -10 24 -23 9 -10 -12 -79 -46 -126 -62 -11 -4 -40 -7 -65 -7 -25 0 -54 3
-65 7 -64 21 -121 54 -151 85 -40 40 -84 123 -84 157 0 23 -2 23 -109 23
l-108 0 9 -52z"/>
<path d="M4578 833 c12 -2 32 -2 45 0 12 2 2 4 -23 4 -25 0 -35 -2 -22 -4z"/>
<path d="M4925 831 c-3 -5 -2 -12 3 -15 5 -3 9 1 9 9 0 17 -3 19 -12 6z"/>
<path d="M4290 816 c0 -2 7 -7 16 -10 8 -3 12 -2 9 4 -6 10 -25 14 -25 6z"/>
<path d="M5429 1479 c-133 -20 -230 -138 -231 -278 -1 -115 56 -207 160 -258
188 -93 407 47 405 258 -3 180 -154 306 -334 278z"/>
<path d="M4964 1169 c-14 -23 42 -195 79 -242 12 -16 33 -42 46 -58 l23 -29
117 -1 c64 0 226 -2 361 -3 l245 -2 30 32 c48 51 65 76 90 132 20 43 45 141
45 174 0 5 -48 7 -107 6 l-107 -3 -8 -44 c-14 -84 -77 -164 -163 -209 -41 -22
-63 -26 -125 -26 -89 1 -139 7 -134 15 2 4 -9 12 -25 19 -62 25 -151 147 -151
206 0 13 -5 26 -12 30 -15 10 -198 12 -204 3z m539 -326 c-13 -2 -33 -2 -45 0
-13 2 -3 4 22 4 25 0 35 -2 23 -4z"/>
<path d="M5170 816 c0 -2 7 -7 16 -10 8 -3 12 -2 9 4 -6 10 -25 14 -25 6z"/>
<path d="M5760 815 c0 -5 5 -17 10 -25 5 -8 10 -10 10 -5 0 6 -5 17 -10 25 -5
8 -10 11 -10 5z"/>
<path d="M6340 1201 l0 -289 43 10 c161 36 252 201 201 364 -29 92 -117 173
-216 198 l-28 6 0 -289z"/>
<path d="M6111 1023 c0 -93 4 -177 9 -188 6 -13 9 -15 9 -5 1 9 4 11 9 5 9
-13 182 -7 182 6 0 5 10 9 22 9 21 0 21 0 3 -14 -18 -13 -17 -14 15 -11 22 2
34 8 32 16 -2 10 0 10 12 -1 10 -7 28 -10 45 -7 16 4 31 2 33 -3 2 -5 38 -11
81 -12 60 -2 80 1 87 12 9 13 10 13 10 0 1 -23 88 77 117 134 31 62 53 138 53
189 l0 37 -105 0 -105 0 -1 -32 c-2 -116 -128 -247 -253 -264 l-46 -7 0 152 0
151 -105 0 -105 0 1 -167z"/>
<path d="M6992 1713 c37 -2 100 -2 140 0 40 1 10 3 -67 3 -77 0 -110 -1 -73
-3z"/>
<path d="M7253 1713 c15 -2 39 -2 55 0 15 2 2 4 -28 4 -30 0 -43 -2 -27 -4z"/>
<path d="M7139 1307 c4 -4 86 -6 182 -5 l174 3 -182 5 c-100 3 -179 2 -174 -3z"/>
<path d="M6921 1010 c0 -102 4 -194 9 -205 7 -17 9 -14 10 15 1 19 4 27 7 18
4 -15 25 -17 211 -17 308 -1 361 -4 372 -21 8 -12 10 -11 11 5 0 20 1 20 8 0
7 -16 9 -14 14 14 16 77 32 71 -213 71 l-220 0 0 99 c0 81 3 100 16 105 9 3
90 6 180 6 l164 0 0 51 0 51 -285 -3 -285 -4 1 -185z m619 -170 c0 -5 -5 -10
-11 -10 -5 0 -7 5 -4 10 3 6 8 10 11 10 2 0 4 -4 4 -10z"/>
<path d="M675 1524 c-27 -19 -137 -97 -243 -172 -277 -198 -277 -190 12 -396
282 -201 280 -200 313 -191 27 6 27 7 9 21 -20 14 -20 14 0 15 10 0 14 3 8 5
-6 3 -8 23 -4 54 4 28 3 50 -1 50 -5 0 -6 7 -3 15 4 8 2 15 -2 15 -5 0 -21 10
-36 23 -14 12 -78 58 -142 102 -63 44 -116 85 -116 91 0 7 67 59 149 118 142
101 173 130 149 138 -7 3 -8 10 -1 23 5 11 9 43 8 70 -3 44 -5 50 -26 52 -14
1 -45 -13 -74 -33z"/>
<path d="M7969 1493 c-1 -10 -1 -21 0 -25 0 -5 -3 -8 -9 -8 -5 0 -10 -7 -10
-15 0 -9 -6 -18 -14 -21 -22 -8 -26 -41 -7 -62 9 -10 32 -29 51 -42 108 -74
210 -154 209 -164 0 -6 -54 -49 -120 -96 -67 -47 -143 -101 -171 -121 -81 -58
-99 -111 -52 -154 41 -38 80 -33 155 20 392 277 419 298 427 329 15 54 -2 76
-120 161 -226 162 -307 214 -312 202 -3 -9 -5 -9 -5 1 -1 19 -21 14 -22 -5z"/>
</g>
</svg>
